<svg width="108" height="17" viewBox="0 0 108 17" fill="none" xmlns="http://www.w3.org/2000/svg">
<path d="M13.3106 9.17145L9.55812 15.5982L5.80569 9.17145H13.3106ZM14.3159 8.59705H4.79636L9.55812 16.7349L14.3159 8.59705Z" fill="#263238"/>
<path d="M19.8347 1.17808L23.5871 7.60481H16.0822L19.8347 1.17808ZM19.8347 0.0292969L15.0729 8.16715H24.5964L19.8347 0.0292969Z" fill="#263238"/>
<path d="M0.234009 0.0292969L4.2266 7.22725L8.58952 0.210039L0.234009 0.0292969Z" fill="#4CAF4F"/>
<path d="M9.55822 0.659912L13.7462 7.8177H5.36215L9.55822 0.659912Z" fill="#4CAF4F"/>
<path d="M14.8247 9.38037L19.0167 16.735H10.4332L14.6944 9.38037H14.8247Z" fill="#4CAF4F"/>
<path d="M15.7322 8.93445L19.8347 16.1766L23.9941 8.93445H15.7322Z" fill="#4CAF4F"/>
<path d="M42.0209 1.19104V15.3655H39.4324L33.2657 6.44419H33.1618V15.3655H30.165V1.19104H32.795L38.9133 10.1055H39.0379V1.19104H42.0209Z" fill="#263238"/>
<path d="M49.2864 15.5732C48.1928 15.5732 47.2516 15.3517 46.4625 14.9087C45.6781 14.4612 45.0737 13.8291 44.6492 13.0124C44.2247 12.191 44.0125 11.2198 44.0125 10.0986C44.0125 9.00501 44.2247 8.04528 44.6492 7.21936C45.0737 6.39343 45.6712 5.74977 46.4418 5.28836C47.217 4.82695 48.1259 4.59624 49.1687 4.59624C49.8701 4.59624 50.523 4.70929 51.1274 4.93538C51.7365 5.15686 52.2671 5.49138 52.7193 5.93895C53.1761 6.38651 53.5313 6.94943 53.7851 7.62771C54.0389 8.30136 54.1658 9.09037 54.1658 9.99474V10.8045H45.1891V8.97733H51.3904C51.3904 8.55283 51.2981 8.17678 51.1136 7.84918C50.929 7.52158 50.6729 7.2655 50.3453 7.08093C50.0223 6.89176 49.6463 6.79717 49.2172 6.79717C48.7696 6.79717 48.3728 6.90098 48.0267 7.10862C47.6853 7.31164 47.4177 7.58618 47.2239 7.93224C47.0301 8.27368 46.9309 8.65434 46.9263 9.07422V10.8114C46.9263 11.3374 47.0232 11.7919 47.217 12.1749C47.4154 12.5579 47.6945 12.8532 48.0544 13.0608C48.4143 13.2684 48.8411 13.3723 49.3348 13.3723C49.6624 13.3723 49.9623 13.3261 50.2346 13.2338C50.5068 13.1416 50.7398 13.0031 50.9336 12.8186C51.1274 12.634 51.275 12.4079 51.3766 12.1403L54.1035 12.3202C53.9651 12.9754 53.6813 13.5476 53.2522 14.0367C52.8277 14.5212 52.2786 14.8995 51.605 15.1718C50.9359 15.4394 50.1631 15.5732 49.2864 15.5732Z" fill="#263238"/>
<path d="M58.3635 4.73467L60.3152 8.45132L62.3154 4.73467H65.34L62.2601 10.0501L65.423 15.3655H62.4123L60.3152 11.6904L58.2527 15.3655H55.2074L58.3635 10.0501L55.3182 4.73467H58.3635Z" fill="#263238"/>
<path d="M71.5136 15.5732C70.4247 15.5732 69.488 15.3425 68.7036 14.8811C67.9239 14.415 67.324 13.7691 66.9041 12.9431C66.4889 12.1172 66.2812 11.1667 66.2812 10.0916C66.2812 9.00271 66.4912 8.04759 66.9111 7.22628C67.3356 6.40036 67.9377 5.75669 68.7175 5.29528C69.4973 4.82926 70.4247 4.59624 71.4998 4.59624C72.4272 4.59624 73.2393 4.76466 73.936 5.10149C74.6328 5.43832 75.1841 5.91126 75.5902 6.52032C75.9962 7.12938 76.22 7.84457 76.2615 8.66588H73.4792C73.4008 8.13526 73.1932 7.70845 72.8563 7.38547C72.5241 7.05786 72.0881 6.89406 71.5482 6.89406C71.0914 6.89406 70.6923 7.01864 70.3509 7.26781C70.0141 7.51235 69.751 7.86995 69.5619 8.34058C69.3727 8.81122 69.2781 9.38106 69.2781 10.0501C69.2781 10.7284 69.3704 11.3051 69.5549 11.7804C69.7441 12.2556 70.0094 12.6179 70.3509 12.867C70.6923 13.1162 71.0914 13.2408 71.5482 13.2408C71.8851 13.2408 72.1873 13.1715 72.4549 13.0331C72.7271 12.8947 72.9509 12.694 73.1263 12.431C73.3062 12.1634 73.4239 11.8427 73.4792 11.4689H76.2615C76.2154 12.281 75.9939 12.9962 75.5971 13.6145C75.2049 14.2282 74.6628 14.708 73.9706 15.0541C73.2785 15.4002 72.4595 15.5732 71.5136 15.5732Z" fill="#263238"/>
<path d="M82.9941 15.5732C81.9005 15.5732 80.9593 15.3517 80.1703 14.9087C79.3859 14.4612 78.7814 13.8291 78.3569 13.0124C77.9324 12.191 77.7202 11.2198 77.7202 10.0986C77.7202 9.00501 77.9324 8.04528 78.3569 7.21936C78.7814 6.39343 79.3789 5.74977 80.1495 5.28836C80.9247 4.82695 81.8336 4.59624 82.8764 4.59624C83.5778 4.59624 84.2307 4.70929 84.8351 4.93538C85.4442 5.15686 85.9748 5.49138 86.427 5.93895C86.8838 6.38651 87.239 6.94943 87.4928 7.62771C87.7466 8.30136 87.8735 9.09037 87.8735 9.99474V10.8045H78.8968V8.97733H85.0981C85.0981 8.55283 85.0058 8.17678 84.8213 7.84918C84.6367 7.52158 84.3806 7.2655 84.053 7.08093C83.73 6.89176 83.354 6.79717 82.9249 6.79717C82.4773 6.79717 82.0805 6.90098 81.7344 7.10862C81.393 7.31164 81.1254 7.58618 80.9316 7.93224C80.7378 8.27368 80.6386 8.65434 80.634 9.07422V10.8114C80.634 11.3374 80.7309 11.7919 80.9247 12.1749C81.1231 12.5579 81.4022 12.8532 81.7621 13.0608C82.122 13.2684 82.5488 13.3723 83.0425 13.3723C83.3701 13.3723 83.67 13.3261 83.9423 13.2338C84.2145 13.1416 84.4475 13.0031 84.6413 12.8186C84.8351 12.634 84.9828 12.4079 85.0843 12.1403L87.8112 12.3202C87.6728 12.9754 87.389 13.5476 86.9599 14.0367C86.5354 14.5212 85.9863 14.8995 85.3127 15.1718C84.6436 15.4394 83.8708 15.5732 82.9941 15.5732Z" fill="#263238"/>
<path d="M92.746 9.21957V15.3655H89.7976V4.73467H92.6075V6.6103H92.7321C92.9674 5.99201 93.362 5.50291 93.9156 5.14301C94.4693 4.7785 95.1407 4.59624 95.9297 4.59624C96.668 4.59624 97.3116 4.75774 97.8607 5.08072C98.4098 5.40371 98.8366 5.86512 99.1411 6.46495C99.4456 7.06017 99.5979 7.77074 99.5979 8.59667V15.3655H96.6495V9.12267C96.6541 8.47209 96.488 7.96453 96.1512 7.60002C95.8143 7.23089 95.3506 7.04633 94.76 7.04633C94.3632 7.04633 94.0125 7.13169 93.708 7.30241C93.4081 7.47313 93.1728 7.72229 93.0021 8.0499C92.8359 8.37288 92.7506 8.76277 92.746 9.21957Z" fill="#263238"/>
<path d="M107.576 4.73467V6.94943H101.174V4.73467H107.576ZM102.628 2.18769H105.576V12.0988C105.576 12.371 105.618 12.5832 105.701 12.7355C105.784 12.8832 105.899 12.987 106.047 13.047C106.199 13.1069 106.374 13.1369 106.573 13.1369C106.711 13.1369 106.85 13.1254 106.988 13.1023C107.126 13.0746 107.233 13.0539 107.306 13.04L107.77 15.234C107.622 15.2802 107.415 15.3332 107.147 15.3932C106.88 15.4578 106.554 15.497 106.171 15.5109C105.461 15.5386 104.838 15.444 104.303 15.2271C103.772 15.0103 103.359 14.6734 103.064 14.2166C102.768 13.7598 102.623 13.1831 102.628 12.4863V2.18769Z" fill="#263238"/>
</svg>
